<?xml version="1.0" encoding="utf-8"?>
<!-- Generator: Adobe Illustrator 18.1.1, SVG Export Plug-In . SVG Version: 6.00 Build 0)  -->
<svg version="1.1" id="Layer_1" xmlns="http://www.w3.org/2000/svg" xmlns:xlink="http://www.w3.org/1999/xlink" x="0px" y="0px"
	 viewBox="0 0 500 500" enable-background="new 0 0 500 500" xml:space="preserve">
<path fill="#C1272D" d="M370.8,271c2.1,2.2,2.3,5.7-0.2,7.4c-6.3,4.1-14.3,3.5-21.7,2.7c-12.5-1.4-27.4-2-33.8-13.7
	c-0.2,0-0.2-0.2-0.4-0.4c-8.2-4.5,5.7-7.6,9.6-8.2c8.8-1.2,18.2,1.2,26.8,3.1C358.3,263.4,365.1,265.3,370.8,271L370.8,271z
	 M484.9,457.5c-5.9,4.1-3.3,11.1-7.4,16c-4.1,4.7-14.1,4.7-19.4,4.7c-22.5,0.2-44.4-1.6-66.5,0.2c-5.7,0.4-10.8,1.2-16,2.5
	c-1.6,0.4-4.1,1.4-5.9,0.4c-4.5-2.3-8.6-9.8-14.5-7.4c-4.9,2.2-8.6,9.2-14.5,4.9c-10.8-8-19.7-0.8-31.1,1.4
	c-11.7,2.3-22.9-4.1-34.4-1c-8.6,2.5-16.8,5.1-25.6,2.2c-8.8-3.1-11.1-10-3.5-16.4c12.1-10,27.2-11.5,42.2-10.4
	c22.9,2,45.5,0.2,68.4-1c0.8,0,1.2,0.4,1.2,1c9.8,3.9,16-3.9,21.7-10.8c0.8-1,2.2-0.4,2.5,0.2c8.2,12.1,18.2-1.6,28.5-0.4
	c2.7,0.2,5.3,1,7,3.5c0.8,1.2,1,2.5,1,3.9c0.4,6.3,8.4,4.9,8.2-1.4c0-1,1.2-2,2.2-1.6c8.2,3.3,18.8,7.6,25.4-1
	c5.7-7.2,6.5-17.6,7-26.4c1.2-23.7-0.4-47.9-2.2-71.3c-1.4-22.9-3.9-46.1-1.2-69c2.7-22.7,2.5-44.8,2.1-67.6
	c-0.2-11.9-0.8-23.8,0-35.8c0.4-10.9,2.3-22.7,1.2-33.6c-1.2-9.8-7-18.2-8.2-27.8c-1.2-8.8,0-18,2.2-26.6c1.2-5.3,3.9-11.7,3.7-17.2
	c-0.2-4.7-0.4-9.6-0.2-14.3c0-2.3-0.4-6.1,1.4-8c2.7-3.3,4.1-8.2-2.3-8.8c-15.4-2-31.3-11.7-45.9-2.2c0.2,3.3,0.4,7-0.4,10.4
	l2.1,2.7c3.7,1.6,7.4,2.2,11.5,2.3c4.7,0,9.8-1.2,14.5-0.8c3.9,0.4,7.2,3.9,5.9,8.4c-1,3.3-3.9,6.1-5.7,8.8
	c-3.1,4.9-2.5,11.9-2.5,17.6c-0.2,14.3,0,28.5,0.4,42.4c0.4,11.7,1.6,23.7,2.3,35.4c0.2,0.2,1,0.4,1,1c0.4,13.3,4.9,26.4,5.1,39.7
	c0.2,0.2-3.5,16.4-3.5,16.4c-0.2,17.2-1.6,49.1-1.6,49.1c-0.2,29.3-5.3,58.4-0.2,87.6c2.1,11.7-2.3,23.1-2.7,34.8
	c-0.4,12.9,1.2,25.6-0.8,38.5c0.2,0.8,0,1.6-1,2c-26.8,5.1-53.9,6.1-81.3,4.5c-6.8-0.4-14.9-1-21.5,1.6c-2.5,1.2-6.1,2.7-9.2,2.5
	c-3.9-0.4-5.9-3.5-9.6-4.1c-4.7-1-9.2-2-13.7-2.3c-12.1-1.6-23.7-2.3-35,2.5c-6.3,2.7-12.9,1.6-19.2-1c-7.4-3.1-13.1-6.8-21.3-2.7
	c-3.3,1.6-6.3,3.3-10,4.1c-3.1,0.8-5.9,0-8.6-1.2c-6.3-2.3-11.1-3.1-17.8-2c0.8,1,0.2,2.7-1.2,2.7c-39.7-2.2-79.6,2.5-119.2,3.1
	c-2,0.4-3.3,2.5-4.5,2.5h-1.2c-1,0-1.2-3.3-1-3.9c-5.3-5.9-3.9-25.2-3.7-30.9c1.6-36.9-3.1-74.1-4.1-110.8
	c-0.4-18.4-0.4-36.9,2.5-55.1c3.5-20.5,3.5-40.5,3.1-61c-1-40.9,3.1-81.5,2-122.4c0-0.8,0.8-1,1.2-0.8l0.4-0.2
	c10.9-1,22.9-3.9,33.6-1c0.2,0,0.4,0.2,0.4,0.4l1.6,0.2h12.1c0.4,0,1,0.2,1,0.4c21.5,0.2,43-1.6,64.5-2.5c7.4-0.2,15.2,0,22.7-2.3
	c3.7-1.2,8.2-3.1,12.1-2.7c9.8,0.8,19.7,3.7,29.3,5.9c6.8,1.4,11.5-10.4,17.6-6.3c9.2,5.9,19.7,3.7,30.3,3.9c5.7,0.2,10.9-1,16.6-1
	c3.1,0,5.7,0.8,8.4,1.4c2.7-0.4,5.1-0.2,8.2,1l50-1.6c10,0.2,20.9,1,30.5-2.7c2.5-1,3.9-2.3,4.7-3.9c-0.4-0.8-0.8-1.6-1.2-2.5
	c-0.8-1.4-1.6-3.1-2.5-4.1c-10.8-3.5-23.1-2.5-34.4-3.1c-15.4-0.8-30.5,1.4-45.9,2.5c-14.3,1.2-29.1,2.2-43.4,1
	c-8.4-0.8-24.2-4.5-31.5,1.4c-0.8,0.4-1.4,0.4-2.2,0c-13.7-11.1-31.7,5.7-47.3,1c-9.4-2.7-18.2-4.7-28.1-3.5c-9.6,1-19,2.3-28.7,2.3
	c-21.3-0.2-42.4,1.2-63.7,0.4c-4.7-0.2-9.2-0.2-13.5-0.8c-3.7-0.4-8.6-2.3-12.3-0.8c-5.9,2.2-7,4.1-6.5,5.9
	c1.6,1.2-3.9,8.6-3.9,12.3L42,70.8c-0.2,14.5-1.2,27.8-4.5,41.8c-1.6,7.4-5.3,18-2.5,25.4c1.6,4.9,5.3,8.2,7.4,12.5
	c3.7,8,3.9,17.8,3.5,26.4l-2.3,84c-1,28-2.7,56.1-1.6,84.2c1,26,5.1,52.6,1.6,78.4c-1.2,8.6-11.5,23.8-1.6,29.9
	c5.7,3.3,12.3,4.1,18.8,4.7c15.8,1,31.7-0.8,47.7-2.5c5.9-0.8,11.7-2,17.6-2c4.5-0.2,8.6,0.4,12.9,2c3.7,1.4,9.4,3.9,13.7,3.9
	c0.2,0.2,7-0.2,7.4-2.2c5.9-2.5,10.9-4.5,18.4-3.1c7.2,1.4,13.7,2.3,21.3,1c3.9-0.8,9.8-1.2,13.7-0.2l1.6,1.2c1.6-0.8-1,2-2.5,2.5
	c-8.8,3.5-6.1,14.9-7,22.5c0,0.8-1,1-1.4,1c-3.5,0-8.4,0-10.4-3.7c-4.1-7.6-14.1-12.9-14.1,3.1c0,1-0.8,1.4-1.4,1.4
	c-0.8,0-1.4-0.4-1.4-1.4s-10.4-6.5-11.5-7c-5.1-2.7-10.9-6.1-17-3.9c-3.7,1.2-6.8,3.3-10.4,4.9c-6.3,7.6-12.9,15.8-22.1,10.9
	c-2-1-9.6-7.6-11.1-6.3c-2.2,2.3-4.5,4.7-7.4,5.9c-8.4,3.3-17.2,2.7-26.2,2.5c-0.4,0-1.4-0.4-1.4-1.2c-0.4-3.5-2.3-10.6-7.2-6.3
	c-1.2,1-2.2,2-3.3,3.1c-1.4,1.2-3.1,2.7-4.9,3.5c-5.9,2.3-23.8-0.8-26.2-4.9c-2-3.1-2.5-6.3-3.3-9.8c-1.4-8.6-0.4-18-0.8-26.8
	c-0.8-22.1-2.3-43.8-4.1-65.9c-1-11.1-2-22.7-1-34c0.4-7.2,0.8-17.2,4.5-23.8c3.1-5.3,1-9.6-3.1-13.5c-1-1.2-1.4-3.3-1.4-4.7
	c-0.8-8.2,0.8-16.8,1.2-25c0.4-6.1,1.4-12.1,1.4-18.2c0-4.7-1-9.2-1.4-13.7c-0.2-2.3-0.4-4.7,1-6.8c2.7-3.9,2.3-6.1,0.8-10.6
	c-3.1-8.6,0-19,0.4-28c0.8-10.6,1.2-20.9,0-31.7c-1.2-11.7-3.5-23.1-2.7-35c0.8-10.8,1.4-20.5,2-31.1c1-19.2,1-38.5,0.4-57.7v4.5
	c0,0-1.6-24.4,8.6-30.3c15.6-8.6,34.6-7.2,51.6-8c22.1-1,44.4,1.2,66.5,1.2c12.9,0,25.6-0.2,38.1-3.1c8.8-2,17.6-2.7,26.6-2.3
	c10.9,0.8,21.5,3.5,32.3,4.5c10.8,1,21.3,0.4,32.1-0.2c23.3-1.6,46.7-1,70,0l36.4,1.6c5.7,0.2,12.1,1.6,17.6,0.2l10.4-3.5
	c7.6-2.2,12.9-0.2,20.3,1.6l27.4,6.5c3.1-0.8,6.1-1,8.4,1.4c5.1,4.7,0.2,10.6,3.9,15.8c4.5,6.3,8.6,10.4,9.6,18.4
	c1,8.6,1.4,18-1.4,26.4c-2,5.7-4.5,11.7-2.1,17.8c1.4,3.7,3.9,7.2,4.9,11.1c2,8.4,2,16.8,1.4,25.4c-0.4,9.8-1,19.7-2.2,29.3
	c-0.8,6.3-3.3,12.3-3.5,18.4c-0.2,5.1,1.4,9.4,2.3,14.3c3.3,16-10.8,26.2-13.3,40.9c-1.4,8,7.6,4.5,11.7,9.2c2.5,3.1,1.2,8.2,1,11.5
	c-1,8.6,1.6,17,1.2,25.6c-0.4,10.8-3.7,19.5-1.2,30.3c1.4,6.1,2.5,12.1,1.2,18.2c-1.4,6.1-8.4,21.3,1,24c0.4,0,0.8,0.4,0.8,1
	c0,2.7-0.4,4.7-1.6,7.2c-4.1,9.4,2.3,7.4,3.5,13.5c1.2,5.7-2.2,7.6-3.1,12.9c-1.4,8.4,3.1,14.9,2.7,23.1c-0.2,7.6-4.5,11.9-3.1,19
	c0.4,0,1,0.4,1,1c0.8,3.7,1.2,8-0.2,11.7c-2,5.3-4.1,6.8,2,10C485.9,455.5,485.9,456.9,484.9,457.5L484.9,457.5z M382.7,198.1
	c-3.7-22.9-5.9-46.7-13.5-68.6c-3.3-9.2-4.9-19.2-15.6-20.9c-14.1-2.3-9.4,9.4-7.4,20.5c2.7,17.2,3.9,34.8,8.4,51.8
	c3.1,11.7,8.8,25.6-6.8,16.6c-26.2-15.8-35.2-50.4-45.7-76.2c-4.7-11.7-18.4-39.7-27.8-46.7c-4.5-3.3-26.6-8.2-30.9-5.3
	c-9.2,6.3,19.2,50.2,23.1,58.1c8.6,17.6,17.8,35,28.9,50.8c8,11.1,20.5,21.5,2.7,28.1c-18.4,7-27.4-3.3-39.9-12.9
	c-10-7.4-22.7-8.6-35.2-10c-34.4-4.1-67-0.2-94.6,22.7c-13.3,11.1-21.7,26.4-28.7,42c-2,3.9-13.3,38.5-11.7,38.7
	c-7-1.2-2.7-17.6-11.7-8c-8,8.4,2.3,32.6,5.9,41c8,18.8,16.4,37.1,22.7,56.7c6.3,19.5,7.6,19.2,25.6,20.7
	c22.9,2.2,45.3-4.9,67.8-7.6c0,0-39.9-24.8,38.9,2.3c17.6,6.1,36.2,4.5,54.5,5.1c13.1-3.1,13.5-25.6,20.3-36.2
	c2.5-3.9,15.2-23.8,19.2-25.4c5.7-2.2,13.7,3.7,19.4,4.5c32.8,5.1,43-21.9,37.7-48.3c-4.5-23.1-2-48.9,1.4-66.7
	C390.9,218.4,383.9,204.1,382.7,198.1L382.7,198.1z M235.9,478.8c-3.5-3.3-8.8-4.1-12.3-7.6c-2-2.2-2.5-4.1-2.2-6.5
	c0,0-0.2,0-0.2-0.2c-2.5-4.7,3.3-8.6,7.4-7c2.2,1,5.3,2.3,5.7,4.9c0.2,3.3-2,5.7-2.5,8.6c2.3,1.4,4.7,4.7,5.9,6.3
	C238.5,478.6,236.9,479.7,235.9,478.8L235.9,478.8z"/>
</svg>
